<?xml version="1.0" encoding="UTF-8"?>
<svg id="Layer_2" data-name="Layer 2" xmlns="http://www.w3.org/2000/svg" viewBox="0 0 84.94 100.67">
  <defs>
    <style>
      .cls-1 {
        fill: #1d39c4;
      }

      .cls-2 {
        fill: #fadb14;
      }
    </style>
  </defs>
  <g id="Layer_1-2" data-name="Layer 1">
    <g>
      <path class="cls-1" d="m8.65,73.15l5.51-31.62H0l3.62-20.45h6.29c5.66,0,8.65-3.78,10.54-14.79l1.1-6.29h24.38l-3.78,21.08h17.78l-3.62,20.45h-17.3l-5.35,29.89c-1.1,6.29,1.42,9.28,6.76,9.28,3.15,0,7.08-.63,10.22-1.57l-.16,18.88c-5.19,1.73-11.01,2.67-16.83,2.67-18.72,0-27.69-11.8-25.01-27.53Z"/>
      <path class="cls-2" d="m55.84,87.62c0-8.34,7.39-15.57,15.73-15.57,7.87,0,13.37,5.98,13.37,13.06,0,8.34-7.39,15.57-15.89,15.57-7.55,0-13.21-5.82-13.21-13.06Z"/>
    </g>
  </g>
</svg>