<?xml version="1.0" encoding="UTF-8"?>
<svg id="Layer_2" data-name="Layer 2" xmlns="http://www.w3.org/2000/svg" viewBox="0 0 361.79 89.28">
  <defs>
    <style>
      .cls-1 {
        fill: #1d39c4;
      }

      .cls-2 {
        fill: #fadb14;
      }
    </style>
  </defs>
  <g id="Layer_1-2" data-name="Layer 1">
    <g>
      <path class="cls-1" d="m7.6,64.26l4.84-27.78H0l3.18-17.97h5.53c4.98,0,7.6-3.32,9.26-12.99l.97-5.53h21.42l-3.32,18.52h15.62l-3.18,17.97h-15.2l-4.7,26.26c-.97,5.53,1.24,8.15,5.94,8.15,2.76,0,6.22-.55,8.98-1.38l-.14,16.58c-4.56,1.52-9.67,2.35-14.79,2.35-16.45,0-24.32-10.36-21.97-24.18Z"/>
      <path class="cls-1" d="m52.51,56.66c0-21.97,17.83-39.8,39.8-39.8,17.83,0,32.89,11.33,32.89,30.54,0,4.28-.41,7.6-1.52,11.75h-50.03c.69,7.46,6.77,12.16,15.2,12.16,6.63,0,11.19-4.01,13.82-7.74l17.97,6.91c-5.25,10.64-17.55,18.79-32.61,18.79-20.59,0-35.52-13.68-35.52-32.61Zm53.07-12.71c-1.52-5.67-7.19-9.12-14.1-9.12-6.22,0-11.47,1.94-15.34,9.12h29.44Z"/>
      <path class="cls-1" d="m147.87,53.07l-17-34.55h21.83l9.95,21.56,16.45-21.56h25.29l-29.57,35.1,17.55,34h-22.11l-10.5-20.73-16.58,20.73h-25.15l29.85-34.55Z"/>
      <path class="cls-1" d="m201.35,60.39l7.46-41.87h21.7l-6.63,37.45c-1.66,9.12,2.63,13.96,10.36,13.96,6.5,0,11.06-4.15,12.44-12.02l6.91-39.39h21.7l-12.16,69.1h-21.84l.69-3.59c-4.42,3.46-9.81,5.25-16.17,5.25-17.14,0-27.36-12.71-24.46-28.88Z"/>
      <path class="cls-1" d="m274.59,66.75l18.38-3.04c0,5.53,5.39,9.67,12.71,9.67,4.42,0,7.05-1.66,7.05-4.28,0-2.49-2.35-4.42-8.29-6.91l-7.88-3.32c-9.54-4.01-14.51-10.23-14.51-18.24,0-13.96,10.92-23.77,26.4-23.77,16.86,0,28.47,9.4,29.02,23.36l-17.97,1.66c-1.11-5.67-5.25-9.12-11.19-9.12-3.87,0-6.22,1.8-6.22,4.42s1.38,4.15,8.15,6.77l7.74,3.04c9.67,3.87,14.79,10.23,14.79,18.52,0,13.96-11.33,23.77-27.64,23.77-17.41,0-30.54-9.67-30.54-22.53Z"/>
      <path class="cls-2" d="m336.22,76.98c0-7.32,6.5-13.68,13.82-13.68,6.91,0,11.75,5.25,11.75,11.47,0,7.32-6.5,13.68-13.96,13.68-6.63,0-11.61-5.11-11.61-11.47Z"/>
    </g>
  </g>
</svg>